<svg xmlns="http://www.w3.org/2000/svg" width="800" height="800" viewBox="0 0 124 124" fill="none">
  <!-- Increased scale from the original position -->
  <g transform="translate(62, 62) scale(2.2) translate(-24, -25)">
    <path d="M22.96,0 L7.6,0 C3.41,0 0,3.4 0,7.59 L0,8.65 C0,8.97 0.37,9.13 0.61,8.92 C2.65,7.14 5.56,6.03 8.8,6.03 L22.88,6.03 C33.53,6.03 42.37,14.56 42.4,25.2 C42.41,29.23 41.18,32.98 39.06,36.07 C38.38,37.06 37.62,37.99 36.77,38.84 C35.87,39.74 34.87,40.56 33.8,41.27 C32.1,42.4 30.22,43.27 28.2,43.81 C26.6,44.25 24.92,44.48 23.18,44.48 L22.18,44.48 C20.9,44.48 19.68,43.92 18.85,42.94 C18.32,42.3 17.88,41.61 17.56,40.88 C17.27,40.22 17.78,39.48 18.5,39.48 L22.67,39.48 C24.39,39.48 26.04,39.18 27.56,38.62 C29.1,38.06 30.52,37.24 31.76,36.21 C32.1,35.92 32.44,35.62 32.75,35.31 C33.94,34.12 34.93,32.71 35.64,31.16 C36.49,29.31 36.95,27.24 36.93,25.07 C36.84,17.22 30.29,10.98 22.45,10.98 L8.74,10.98 C3.29,10.98 0.18,14.85 0.01,19.63 C0,20.02 0,20.31 0.01,20.69 C-0.02,20.66 0.04,20.72 0.01,20.69 L0.01,42.28 C0.01,46.83 3.7,50.51 8.24,50.51 L11.31,50.51 C11.67,50.51 11.78,50.03 11.46,49.87 L11.44,49.87 C9.02,48.68 7.19,46.76 6.43,44.49 C6.17,43.73 6.04,42.93 6.04,42.1 L6.04,18.77 C6.04,17.73 6.88,16.89 7.92,16.89 L10.6,16.89 C11.06,16.89 11.44,17.26 11.44,17.73 L11.44,41.44 C11.44,42.51 11.67,43.53 12.08,44.48 C13.5,47.72 17.14,50.11 21.51,50.46 C21.87,50.49 22.24,50.5 22.61,50.5 L23.27,50.5 C30.24,50.5 36.55,47.67 41.12,43.11 C45.75,38.48 48.59,32.06 48.51,24.97 C48.38,11.08 36.85,0 22.96,0 Z M18.28,16.89 L22.64,16.89 C27.24,16.89 30.98,20.62 30.98,25.23 L30.98,25.23 C30.98,29.83 27.25,33.57 22.64,33.57 L18.25,33.57 C17.83,33.57 17.5,33.23 17.5,32.82 L17.5,17.67 C17.5,17.24 17.85,16.89 18.28,16.89 Z" id="Shape" stroke="none" fill="#86c232"/>
  </g>
</svg>